<svg width="83" height="80" viewBox="0 0 83 80" fill="none" xmlns="http://www.w3.org/2000/svg">
<circle cx="42.5" cy="40.5" r="31.5" fill="url(#paint0_linear_16470_55736)"/>
<circle cx="79.5" cy="12.5" r="3.5" fill="#F75555"/>
<circle cx="8.5" cy="4.5" r="4.5" fill="#F75555"/>
<circle cx="4" cy="59" r="2" fill="#F75555"/>
<circle cx="73" cy="71" r="1" fill="#F75555"/>
<path fill-rule="evenodd" clip-rule="evenodd" d="M37.3091 29.1646H46.7016C50.3741 29.1646 52.8332 31.7429 52.8332 35.5779V44.4298C52.8332 48.254 50.3741 50.8312 46.7016 50.8312H37.3091C33.6366 50.8312 31.1666 48.254 31.1666 44.4298V35.5779C31.1666 31.7429 33.6366 29.1646 37.3091 29.1646ZM45.2608 43.2473C45.6291 42.8801 45.6291 42.2842 45.2608 41.9159L43.3325 39.9876L45.2608 38.0582C45.6291 37.6909 45.6291 37.0842 45.2608 36.7159C44.8925 36.3465 44.2966 36.3465 43.9175 36.7159L42 38.6432L40.0716 36.7159C39.6925 36.3465 39.0966 36.3465 38.7283 36.7159C38.36 37.0842 38.36 37.6909 38.7283 38.0582L40.6566 39.9876L38.7283 41.9051C38.36 42.2842 38.36 42.8801 38.7283 43.2473C38.9125 43.4315 39.1616 43.5301 39.4 43.5301C39.6491 43.5301 39.8875 43.4315 40.0716 43.2473L42 41.3309L43.9283 43.2473C44.1125 43.4434 44.3508 43.5301 44.5891 43.5301C44.8383 43.5301 45.0766 43.4315 45.2608 43.2473Z" fill="white"/>
<circle cx="47" cy="2" r="1" fill="#F75555"/>
<circle cx="27.5" cy="78.5" r="1.5" fill="#F75555"/>
<circle cx="54.5" cy="76.5" r="0.5" fill="#F75555"/>
<circle cx="76" cy="49" r="1" fill="#F75555"/>
<circle cx="0.5" cy="33.5" r="0.5" fill="#F75555"/>
<defs>
<linearGradient id="paint0_linear_16470_55736" x1="74" y1="72" x2="-0.964344" y2="50.2648" gradientUnits="userSpaceOnUse">
<stop stop-color="#FF5A5F"/>
<stop offset="1" stop-color="#FF9094"/>
</linearGradient>
</defs>
</svg>
