<svg width="83" height="80" viewBox="0 0 83 80" fill="none" xmlns="http://www.w3.org/2000/svg">
<circle cx="42.5" cy="40.5" r="31.5" fill="url(#paint0_linear_16470_55753)"/>
<circle cx="79.5" cy="12.5" r="3.5" fill="url(#paint1_linear_16470_55753)"/>
<circle cx="8.5" cy="4.5" r="4.5" fill="url(#paint2_linear_16470_55753)"/>
<circle cx="4" cy="59" r="2" fill="url(#paint3_linear_16470_55753)"/>
<circle cx="73" cy="71" r="1" fill="url(#paint4_linear_16470_55753)"/>
<path fill-rule="evenodd" clip-rule="evenodd" d="M47.9829 35.0117V36.6728C49.8488 37.2552 51.2083 38.9443 51.2083 40.9618V46.3101C51.2083 48.8077 49.1377 50.8327 46.5849 50.8327H37.4162C34.8623 50.8327 32.7916 48.8077 32.7916 46.3101V40.9618C32.7916 38.9443 34.1522 37.2552 36.017 36.6728V35.0117C36.028 31.782 38.703 29.166 41.9834 29.166C45.3079 29.166 47.9829 31.782 47.9829 35.0117ZM42.0054 31.0498C44.2401 31.0498 46.0564 32.8261 46.0564 35.0115V36.439H37.9434V34.9899C37.9544 32.8153 39.7707 31.0498 42.0054 31.0498ZM42.9633 44.8264C42.9633 45.3539 42.5339 45.7738 41.9945 45.7738C41.4661 45.7738 41.0368 45.3539 41.0368 44.8264V42.4365C41.0368 41.9197 41.4661 41.4999 41.9945 41.4999C42.5339 41.4999 42.9633 41.9197 42.9633 42.4365V44.8264Z" fill="white"/>
<circle cx="47" cy="2" r="1" fill="url(#paint5_linear_16470_55753)"/>
<circle cx="27.5" cy="78.5" r="1.5" fill="url(#paint6_linear_16470_55753)"/>
<circle cx="54.5" cy="76.5" r="0.5" fill="url(#paint7_linear_16470_55753)"/>
<circle cx="76" cy="49" r="1" fill="url(#paint8_linear_16470_55753)"/>
<circle cx="0.5" cy="33.5" r="0.5" fill="url(#paint9_linear_16470_55753)"/>
<defs>
<linearGradient id="paint0_linear_16470_55753" x1="74" y1="72" x2="-0.964344" y2="50.2648" gradientUnits="userSpaceOnUse">
<stop stop-color="#4D5DFA"/>
<stop offset="1" stop-color="#7784FF"/>
</linearGradient>
<linearGradient id="paint1_linear_16470_55753" x1="83" y1="16" x2="74.6706" y2="13.585" gradientUnits="userSpaceOnUse">
<stop stop-color="#4D5DFA"/>
<stop offset="1" stop-color="#7784FF"/>
</linearGradient>
<linearGradient id="paint2_linear_16470_55753" x1="13" y1="9" x2="2.29081" y2="5.89497" gradientUnits="userSpaceOnUse">
<stop stop-color="#4D5DFA"/>
<stop offset="1" stop-color="#7784FF"/>
</linearGradient>
<linearGradient id="paint3_linear_16470_55753" x1="6" y1="61" x2="1.24036" y2="59.62" gradientUnits="userSpaceOnUse">
<stop stop-color="#4D5DFA"/>
<stop offset="1" stop-color="#7784FF"/>
</linearGradient>
<linearGradient id="paint4_linear_16470_55753" x1="74" y1="72" x2="71.6202" y2="71.31" gradientUnits="userSpaceOnUse">
<stop stop-color="#4D5DFA"/>
<stop offset="1" stop-color="#7784FF"/>
</linearGradient>
<linearGradient id="paint5_linear_16470_55753" x1="48" y1="3" x2="45.6202" y2="2.30999" gradientUnits="userSpaceOnUse">
<stop stop-color="#4D5DFA"/>
<stop offset="1" stop-color="#7784FF"/>
</linearGradient>
<linearGradient id="paint6_linear_16470_55753" x1="29" y1="80" x2="25.4303" y2="78.965" gradientUnits="userSpaceOnUse">
<stop stop-color="#4D5DFA"/>
<stop offset="1" stop-color="#7784FF"/>
</linearGradient>
<linearGradient id="paint7_linear_16470_55753" x1="55" y1="77" x2="53.8101" y2="76.655" gradientUnits="userSpaceOnUse">
<stop stop-color="#4D5DFA"/>
<stop offset="1" stop-color="#7784FF"/>
</linearGradient>
<linearGradient id="paint8_linear_16470_55753" x1="77" y1="50" x2="74.6202" y2="49.31" gradientUnits="userSpaceOnUse">
<stop stop-color="#4D5DFA"/>
<stop offset="1" stop-color="#7784FF"/>
</linearGradient>
<linearGradient id="paint9_linear_16470_55753" x1="1" y1="34" x2="-0.18991" y2="33.655" gradientUnits="userSpaceOnUse">
<stop stop-color="#4D5DFA"/>
<stop offset="1" stop-color="#7784FF"/>
</linearGradient>
</defs>
</svg>
