<svg width="83" height="80" viewBox="0 0 83 80" fill="none" xmlns="http://www.w3.org/2000/svg">
<circle cx="42.5" cy="40.5" r="31.5" fill="url(#paint0_linear_16470_55786)"/>
<circle cx="79.5" cy="12.5" r="3.5" fill="#4ADE80"/>
<circle cx="8.5" cy="4.5" r="4.5" fill="#4ADE80"/>
<circle cx="4" cy="59" r="2" fill="#4ADE80"/>
<circle cx="73" cy="71" r="1" fill="#4ADE80"/>
<path fill-rule="evenodd" clip-rule="evenodd" d="M37.3093 29.166H46.7018C50.3743 29.166 52.8335 31.7443 52.8335 35.5793V44.4313C52.8335 48.2543 50.3743 50.8327 46.7018 50.8327H37.3093C33.6368 50.8327 31.1668 48.2543 31.1668 44.4313V35.5793C31.1668 31.7443 33.6368 29.166 37.3093 29.166ZM41.3826 43.239L46.5284 38.0932C46.8967 37.7249 46.8967 37.129 46.5284 36.7499C46.1601 36.3815 45.5534 36.3815 45.1851 36.7499L40.7109 41.224L38.8151 39.3282C38.4467 38.9599 37.8401 38.9599 37.4717 39.3282C37.1034 39.6965 37.1034 40.2924 37.4717 40.6715L40.0501 43.239C40.2342 43.4232 40.4726 43.5099 40.7109 43.5099C40.9601 43.5099 41.1984 43.4232 41.3826 43.239Z" fill="white"/>
<circle cx="47" cy="2" r="1" fill="#4ADE80"/>
<circle cx="27.5" cy="78.5" r="1.5" fill="#4ADE80"/>
<circle cx="54.5" cy="76.5" r="0.5" fill="#4ADE80"/>
<circle cx="76" cy="49" r="1" fill="#4ADE80"/>
<circle cx="0.5" cy="33.5" r="0.5" fill="#4ADE80"/>
<defs>
<linearGradient id="paint0_linear_16470_55786" x1="74" y1="72" x2="-0.964344" y2="50.2648" gradientUnits="userSpaceOnUse">
<stop stop-color="#1AB65C"/>
<stop offset="1" stop-color="#39E180"/>
</linearGradient>
</defs>
</svg>
