<svg width="83" height="80" viewBox="0 0 83 80" fill="none" xmlns="http://www.w3.org/2000/svg">
<circle cx="42.5" cy="40.5" r="31.5" fill="#00BCD3"/>
<circle cx="79.5" cy="12.5" r="3.5" fill="#00BCD3"/>
<circle cx="8.5" cy="4.5" r="4.5" fill="#00BCD3"/>
<circle cx="4" cy="59" r="2" fill="#00BCD3"/>
<circle cx="73" cy="71" r="1" fill="#00BCD3"/>
<path fill-rule="evenodd" clip-rule="evenodd" d="M48.2496 36.0805H52.8333C52.8333 32.4002 50.6281 30.2502 46.8918 30.2502H37.1081C33.3718 30.2502 31.1666 32.4002 31.1666 36.0336V43.9669C31.1666 47.6003 33.3718 49.7502 37.1081 49.7502H46.8918C50.6281 49.7502 52.8333 47.6003 52.8333 43.9669V43.6289H48.2496C46.1223 43.6289 44.3977 41.9476 44.3977 39.8735C44.3977 37.7994 46.1223 36.1181 48.2496 36.1181V36.0805ZM48.2495 37.6953H52.0243C52.4711 37.6953 52.8332 38.0484 52.8332 38.4839V41.2254C52.828 41.6588 52.4689 42.0089 52.0243 42.014H48.3362C47.2592 42.0281 46.3175 41.3092 46.0732 40.2865C45.9509 39.6516 46.1226 38.9965 46.5424 38.4967C46.9622 37.9969 47.587 37.7036 48.2495 37.6953ZM48.4132 40.5771H48.7695C49.2268 40.5771 49.5976 40.2157 49.5976 39.7697C49.5976 39.3238 49.2268 38.9623 48.7695 38.9623H48.4132C48.1944 38.9598 47.9837 39.0428 47.8281 39.1927C47.6726 39.3426 47.585 39.5471 47.585 39.7603C47.585 40.2078 47.9542 40.572 48.4132 40.5771ZM36.2993 36.0812H42.4141C42.8715 36.0812 43.2422 35.7197 43.2422 35.2738C43.2422 34.8279 42.8715 34.4664 42.4141 34.4664H36.2993C35.8456 34.4663 35.4764 34.8221 35.4711 35.2644C35.4711 35.7119 35.8403 36.076 36.2993 36.0812Z" fill="white"/>
<circle cx="47" cy="2" r="1" fill="#00BCD3"/>
<circle cx="27.5" cy="78.5" r="1.5" fill="#00BCD3"/>
<circle cx="54.5" cy="76.5" r="0.5" fill="#00BCD3"/>
<circle cx="76" cy="49" r="1" fill="#00BCD3"/>
<circle cx="0.5" cy="33.5" r="0.5" fill="#00BCD3"/>
</svg>
